<?xml version="1.0" standalone="no"?>
<!DOCTYPE svg PUBLIC "-//W3C//DTD SVG 20010904//EN"
 "http://www.w3.org/TR/2001/REC-SVG-20010904/DTD/svg10.dtd">
<svg version="1.0" xmlns="http://www.w3.org/2000/svg"
 width="64.000000pt" height="64.000000pt" viewBox="0 0 64.000000 64.000000"
 preserveAspectRatio="xMidYMid meet">

<g transform="translate(0.000000,64.000000) scale(0.100000,-0.100000)"
fill="#000000" stroke="none">
<path d="M130 620 c0 -19 -4 -21 -26 -16 -17 5 -32 2 -43 -7 -9 -8 -25 -17
-36 -19 -19 -3 -20 -12 -23 -210 l-2 -206 27 -20 c16 -10 75 -45 133 -78 93
-52 111 -59 160 -59 49 0 68 7 170 64 63 35 123 71 133 79 18 16 24 72 7 72
-5 0 -10 -12 -10 -27 0 -25 -12 -35 -120 -95 -66 -38 -122 -68 -125 -68 -3 0
-5 89 -5 198 l0 198 119 67 c66 37 122 67 125 67 3 0 6 -65 6 -145 0 -92 4
-145 10 -145 7 0 10 53 8 152 -3 144 -4 153 -23 156 -11 2 -27 11 -36 19 -11
9 -26 12 -43 7 -22 -5 -26 -3 -26 16 0 18 -4 20 -22 14 -44 -13 -111 -67 -137
-110 -14 -24 -28 -43 -31 -43 -3 0 -17 19 -31 43 -26 43 -93 97 -136 110 -19
6 -23 4 -23 -14z m53 -21 c29 -15 87 -70 87 -83 0 -5 -9 -1 -20 9 -12 11 -20
13 -20 6 0 -6 16 -25 35 -42 35 -31 46 -53 22 -47 -6 2 -60 30 -119 63 -89 49
-105 62 -95 73 11 10 22 9 61 -8 55 -23 56 -23 56 -11 0 5 -9 13 -20 16 -11 3
-20 13 -20 21 0 17 5 17 33 3z m307 -4 c0 -8 -4 -15 -9 -15 -5 0 -32 -15 -60
-34 -58 -39 -66 -34 -18 11 52 49 87 65 87 38z m78 -18 c9 -10 -13 -26 -96
-72 -116 -65 -132 -72 -132 -57 0 19 84 84 145 113 70 33 69 33 83 16z m-417
-84 l119 -67 0 -199 c0 -114 -4 -197 -9 -195 -5 1 -61 32 -125 68 l-116 65 0
198 c0 108 3 197 6 197 3 0 59 -30 125 -67z m199 -83 c0 -5 -13 -10 -30 -10
-16 0 -30 5 -30 10 0 6 14 10 30 10 17 0 30 -4 30 -10z m0 -40 c0 -5 -13 -10
-30 -10 -16 0 -30 5 -30 10 0 6 14 10 30 10 17 0 30 -4 30 -10z m0 -150 l0
-120 -30 0 -30 0 0 120 0 120 30 0 30 0 0 -120z m0 -145 c0 -10 -10 -15 -30
-15 -20 0 -30 5 -30 15 0 10 10 15 30 15 20 0 30 -5 30 -15z m0 -45 c0 -5 -13
-10 -30 -10 -16 0 -30 5 -30 10 0 6 14 10 30 10 17 0 30 -4 30 -10z"/>
<path d="M310 220 c0 -33 4 -60 10 -60 6 0 10 27 10 60 0 33 -4 60 -10 60 -6
0 -10 -27 -10 -60z"/>
<path d="M493 427 c-92 -51 -93 -52 -93 -91 0 -45 0 -46 113 21 75 44 77 46
77 84 0 21 -1 39 -2 39 -2 0 -45 -24 -95 -53z m77 4 c0 -13 -22 -32 -71 -60
-39 -23 -73 -41 -75 -41 -2 0 -4 8 -4 18 0 11 27 32 73 59 39 23 73 42 75 42
1 1 2 -8 2 -18z"/>
</g>
</svg>
