<?xml version="1.0" standalone="no"?>
<!DOCTYPE svg PUBLIC "-//W3C//DTD SVG 20010904//EN"
 "http://www.w3.org/TR/2001/REC-SVG-20010904/DTD/svg10.dtd">
<svg version="1.0" xmlns="http://www.w3.org/2000/svg"
 width="64.000000pt" height="64.000000pt" viewBox="0 0 64.000000 64.000000"
 preserveAspectRatio="xMidYMid meet">

<g transform="translate(0.000000,64.000000) scale(0.100000,-0.100000)"
fill="#000000" stroke="none">
<path d="M310 620 c0 -11 5 -20 10 -20 6 0 10 9 10 20 0 11 -4 20 -10 20 -5 0
-10 -9 -10 -20z"/>
<path d="M230 606 c0 -8 5 -18 10 -21 6 -3 10 1 10 9 0 8 -4 18 -10 21 -5 3
-10 -1 -10 -9z"/>
<path d="M397 614 c-4 -4 -7 -14 -7 -23 0 -11 3 -12 11 -4 6 6 10 16 7 23 -2
6 -7 8 -11 4z"/>
<path d="M70 601 c0 -8 64 -51 76 -51 15 0 -2 21 -32 39 -40 24 -44 25 -44 12z"/>
<path d="M523 588 c-28 -17 -44 -38 -29 -38 12 0 76 43 76 51 0 13 -11 10 -47
-13z"/>
<path d="M297 584 c-4 -4 -7 -27 -7 -50 0 -42 -1 -43 -37 -46 -33 -3 -38 -7
-41 -30 -3 -26 -1 -28 37 -28 l40 0 3 -102 c3 -102 3 -103 28 -103 25 0 25 1
28 103 l3 102 40 0 c38 0 40 2 37 28 -3 23 -8 27 -40 30 -36 3 -37 4 -40 50
-2 38 -7 48 -23 50 -12 2 -24 0 -28 -4z m33 -64 l0 -50 40 0 c51 0 53 -18 3
-22 l-38 -3 -3 -102 c-1 -57 -7 -103 -12 -103 -5 0 -11 46 -12 103 l-3 102
-37 3 c-51 4 -49 22 2 22 l40 0 0 50 c0 28 5 50 10 50 6 0 10 -22 10 -50z"/>
<path d="M165 540 c3 -5 13 -10 21 -10 8 0 12 5 9 10 -3 6 -13 10 -21 10 -8 0
-12 -4 -9 -10z"/>
<path d="M445 540 c-3 -5 1 -10 9 -10 8 0 18 5 21 10 3 6 -1 10 -9 10 -8 0
-18 -4 -21 -10z"/>
<path d="M25 460 c-4 -6 12 -10 39 -10 25 0 46 5 46 10 0 6 -18 10 -39 10 -22
0 -43 -4 -46 -10z"/>
<path d="M140 460 c0 -5 9 -10 20 -10 11 0 20 5 20 10 0 6 -9 10 -20 10 -11 0
-20 -4 -20 -10z"/>
<path d="M460 460 c0 -5 9 -10 20 -10 11 0 20 5 20 10 0 6 -9 10 -20 10 -11 0
-20 -4 -20 -10z"/>
<path d="M530 460 c0 -5 21 -10 46 -10 27 0 43 4 39 10 -3 6 -24 10 -46 10
-21 0 -39 -4 -39 -10z"/>
<path d="M45 371 c-3 -10 -15 -21 -25 -24 -14 -3 -20 -14 -20 -31 0 -14 5 -26
10 -26 6 0 10 9 10 20 0 11 5 20 10 20 6 0 10 -26 10 -58 0 -53 3 -61 33 -90
43 -42 57 -28 15 15 -41 43 -28 56 15 15 23 -23 42 -32 66 -32 65 0 91 -38 91
-132 0 -30 4 -47 10 -43 13 8 13 80 -1 128 -8 28 -19 42 -45 54 -30 15 -34 21
-34 55 0 27 -6 41 -20 50 -11 7 -20 17 -20 22 0 15 -68 76 -84 76 -8 0 -17 -9
-21 -19z m43 -60 c2 -40 0 -52 -10 -49 -8 3 -14 25 -16 57 -2 40 0 52 10 49 8
-3 14 -25 16 -57z m42 -37 c0 -34 -4 -53 -10 -49 -5 3 -10 28 -10 56 0 27 5
49 10 49 6 0 10 -25 10 -56z m40 -34 c0 -22 -4 -40 -10 -40 -5 0 -10 18 -10
40 0 22 5 40 10 40 6 0 10 -18 10 -40z"/>
<path d="M165 381 c-10 -17 12 -21 25 -6 10 12 10 15 -3 15 -9 0 -18 -4 -22
-9z"/>
<path d="M450 375 c7 -8 16 -12 21 -9 13 8 1 24 -18 24 -13 0 -13 -3 -3 -15z"/>
<path d="M523 356 c-18 -18 -33 -37 -33 -42 0 -5 -9 -15 -20 -22 -14 -9 -20
-23 -20 -50 0 -34 -4 -40 -34 -55 -26 -12 -37 -26 -45 -54 -14 -48 -14 -120
-1 -128 6 -4 10 13 10 43 0 94 26 132 91 132 24 0 43 9 66 32 43 41 56 28 15
-15 -42 -43 -28 -57 15 -15 30 29 33 37 33 90 0 32 4 58 10 58 18 0 12 -121
-7 -142 -22 -25 -8 -36 17 -13 17 15 20 31 20 92 0 66 -2 75 -20 80 -10 3 -22
14 -25 24 -9 28 -36 22 -72 -15z m55 -38 c-4 -69 -28 -79 -28 -10 0 27 3 52 7
55 17 17 24 3 21 -45z m-48 -37 c0 -28 -4 -53 -10 -56 -6 -4 -10 15 -10 49 0
31 5 56 10 56 6 0 10 -22 10 -49z m-40 -41 c0 -22 -4 -40 -10 -40 -5 0 -10 18
-10 40 0 22 5 40 10 40 6 0 10 -18 10 -40z"/>
<path d="M237 334 c-4 -4 -7 -14 -7 -23 0 -11 3 -12 11 -4 6 6 10 16 7 23 -2
6 -7 8 -11 4z"/>
<path d="M390 326 c0 -8 5 -18 10 -21 6 -3 10 1 10 9 0 8 -4 18 -10 21 -5 3
-10 -1 -10 -9z"/>
<path d="M0 222 c0 -22 14 -42 58 -84 31 -30 67 -60 80 -67 15 -8 22 -21 22
-41 0 -17 5 -30 10 -30 6 0 10 15 10 34 0 28 -6 39 -32 57 -62 42 -128 112
-128 136 0 13 -4 23 -10 23 -5 0 -10 -13 -10 -28z"/>
<path d="M513 108 c-45 -35 -53 -46 -53 -74 0 -19 5 -34 10 -34 6 0 10 13 10
28 0 22 10 35 45 60 25 17 45 38 45 47 0 19 5 21 -57 -27z"/>
</g>
</svg>
