<?xml version="1.0" standalone="no"?>
<!DOCTYPE svg PUBLIC "-//W3C//DTD SVG 20010904//EN"
 "http://www.w3.org/TR/2001/REC-SVG-20010904/DTD/svg10.dtd">
<svg version="1.0" xmlns="http://www.w3.org/2000/svg"
 width="64.000000pt" height="64.000000pt" viewBox="0 0 64.000000 64.000000"
 preserveAspectRatio="xMidYMid meet">

<g transform="translate(0.000000,64.000000) scale(0.100000,-0.100000)"
fill="#000000" stroke="none">
<path d="M208 629 c-68 -39 -24 -136 52 -116 11 3 20 1 20 -4 0 -5 11 -15 25
-21 l25 -11 0 -219 c0 -132 4 -227 10 -239 13 -23 38 -25 47 -4 5 14 7 14 23
0 9 -8 24 -13 32 -10 13 5 16 40 20 203 4 156 8 197 19 200 26 8 109 102 109
122 0 32 -31 38 -49 10 -9 -14 -25 -35 -37 -49 -20 -23 -23 -24 -54 -11 -19 8
-42 15 -52 15 -10 1 -29 11 -41 23 -13 12 -31 22 -40 22 -13 0 -16 6 -11 24 4
19 -1 32 -20 50 -27 27 -50 32 -78 15z"/>
<path d="M360 620 c-40 -40 -15 -110 39 -110 12 0 33 -7 46 -16 28 -18 55 -13
55 11 0 22 -27 30 -47 14 -16 -13 -16 -12 0 11 23 34 21 62 -6 88 -29 27 -61
28 -87 2z"/>
<path d="M54 546 c-11 -29 62 -123 107 -138 9 -3 14 -53 17 -196 5 -208 12
-233 52 -197 11 10 20 13 20 8 0 -17 31 -25 46 -12 11 9 14 58 14 239 0 226 0
227 -22 237 -13 6 -34 9 -48 8 -14 -1 -31 3 -39 9 -10 8 -18 5 -31 -12 l-18
-22 -33 45 c-33 46 -55 56 -65 31z"/>
</g>
</svg>
