<?xml version="1.0" standalone="no"?>
<!DOCTYPE svg PUBLIC "-//W3C//DTD SVG 20010904//EN"
 "http://www.w3.org/TR/2001/REC-SVG-20010904/DTD/svg10.dtd">
<svg version="1.0" xmlns="http://www.w3.org/2000/svg"
 width="64.000000pt" height="64.000000pt" viewBox="0 0 64.000000 64.000000"
 preserveAspectRatio="xMidYMid meet">

<g transform="translate(0.000000,64.000000) scale(0.100000,-0.100000)"
fill="#000000" stroke="none">
<path d="M4 599 c4 -24 16 -75 28 -112 25 -83 85 -151 139 -159 19 -3 36 -4
38 -2 4 4 -20 103 -34 139 -13 35 35 -38 69 -105 46 -91 56 -124 69 -247 11
-97 14 -108 32 -108 18 0 21 9 26 90 3 50 11 102 17 116 17 41 77 132 105 157
l25 24 -24 -48 c-34 -66 -32 -74 14 -64 62 14 107 85 128 204 l7 39 -51 -6
c-68 -8 -147 -43 -177 -79 -19 -22 -25 -41 -25 -76 -1 -31 -7 -55 -19 -69 -21
-25 -31 -29 -31 -13 0 6 -7 27 -16 48 -9 20 -17 66 -18 102 -1 75 -18 109 -69
141 -48 29 -125 56 -186 64 l-53 7 6 -43z"/>
</g>
</svg>
