<?xml version="1.0" standalone="no"?>
<!DOCTYPE svg PUBLIC "-//W3C//DTD SVG 20010904//EN"
 "http://www.w3.org/TR/2001/REC-SVG-20010904/DTD/svg10.dtd">
<svg version="1.0" xmlns="http://www.w3.org/2000/svg"
 width="64.000000pt" height="64.000000pt" viewBox="0 0 64.000000 64.000000"
 preserveAspectRatio="xMidYMid meet">

<g transform="translate(0.000000,64.000000) scale(0.100000,-0.100000)"
fill="#000000" stroke="none">
<path d="M310 625 c0 -8 -8 -15 -17 -15 -17 -1 -17 -1 0 -14 9 -7 17 -17 17
-23 0 -5 -29 -25 -65 -44 -64 -34 -83 -63 -50 -75 8 -4 15 -14 15 -24 0 -13
-29 -35 -97 -72 -99 -54 -126 -84 -84 -95 19 -5 21 -14 23 -132 l3 -126 265 0
265 0 3 126 c2 118 4 127 23 132 42 11 15 41 -84 95 -68 37 -97 59 -97 72 0
10 7 20 15 24 33 12 15 41 -50 76 -36 19 -65 39 -65 44 0 5 8 15 18 22 16 13
16 13 0 14 -10 0 -18 7 -18 15 0 8 -4 15 -10 15 -5 0 -10 -7 -10 -15z m68
-107 c69 -38 67 -37 59 -44 -3 -4 -31 8 -62 25 l-55 31 -55 -31 c-31 -17 -59
-28 -63 -24 -4 4 -2 9 3 12 6 2 33 16 60 32 28 16 51 29 53 30 1 1 28 -13 60
-31z m-8 -38 l40 -20 0 -220 c0 -140 -4 -220 -10 -220 -5 0 -10 24 -10 54 0
66 -26 106 -70 106 -44 0 -70 -40 -70 -106 0 -30 -4 -54 -10 -54 -6 0 -10 80
-10 220 l0 220 38 19 c47 25 54 25 102 1z m-175 -117 c-23 -17 -151 -83 -162
-83 -16 0 21 25 94 65 75 40 110 50 68 18z m405 -69 c26 -25 -3 -14 -84 29
-44 23 -81 48 -84 55 -4 13 142 -61 168 -84z m-32 -127 l3 -107 -55 0 c-30 0
-58 -5 -61 -10 -4 -6 17 -10 54 -10 34 0 61 -4 61 -10 0 -6 -30 -10 -70 -10
l-70 0 0 164 0 164 68 -37 67 -36 3 -108z m-358 13 l0 -160 -70 0 c-40 0 -70
4 -70 10 0 6 27 10 61 10 37 0 58 4 54 10 -3 6 -31 10 -61 10 l-55 0 3 108 3
107 60 32 c33 18 63 33 68 33 4 0 7 -72 7 -160z m100 -60 c0 -24 -5 -40 -12
-40 -9 0 -9 -3 0 -12 19 -19 15 -48 -8 -48 -17 0 -20 7 -20 51 0 51 13 89 30
89 6 0 10 -18 10 -40z m50 21 c5 -11 10 -42 10 -70 0 -44 -3 -51 -20 -51 -23
0 -27 29 -8 48 9 9 9 12 0 12 -7 0 -12 16 -12 40 0 43 13 52 30 21z"/>
<path d="M280 431 c-5 -11 -10 -51 -10 -90 0 -44 -4 -71 -11 -71 -6 0 -9 -10
-7 -22 3 -21 8 -23 68 -23 60 0 65 2 68 23 2 12 -1 22 -7 22 -7 0 -11 27 -11
71 0 86 -11 109 -50 109 -19 0 -33 -7 -40 -19z m30 -41 c0 -22 -4 -40 -10 -40
-11 0 -14 63 -3 73 11 12 13 8 13 -33z m40 -6 c0 -19 -4 -34 -10 -34 -5 0 -10
18 -10 41 0 24 4 38 10 34 6 -3 10 -22 10 -41z m-40 -84 c0 -16 -4 -30 -10
-30 -5 0 -10 14 -10 30 0 17 5 30 10 30 6 0 10 -13 10 -30z m40 0 c0 -16 -4
-30 -10 -30 -5 0 -10 14 -10 30 0 17 5 30 10 30 6 0 10 -13 10 -30z m20 -50
c0 -5 -22 -10 -50 -10 -27 0 -50 5 -50 10 0 6 23 10 50 10 28 0 50 -4 50 -10z"/>
<path d="M465 248 c-3 -13 -5 -53 -3 -88 3 -65 3 -65 33 -65 l30 0 0 85 0 85
-27 3 c-22 3 -29 -2 -33 -20z m45 -49 c0 -37 -4 -49 -15 -49 -11 0 -15 12 -15
48 0 27 3 52 6 55 15 14 24 -7 24 -54z m0 -79 c0 -5 -7 -10 -15 -10 -8 0 -15
5 -15 10 0 6 7 10 15 10 8 0 15 -4 15 -10z"/>
<path d="M114 257 c-3 -8 -4 -47 -2 -88 l3 -74 30 0 c30 0 30 0 33 65 4 88 -2
110 -34 110 -13 0 -27 -6 -30 -13z m46 -58 c0 -37 -4 -49 -15 -49 -11 0 -15
12 -15 48 0 27 3 52 6 55 15 14 24 -7 24 -54z m0 -79 c0 -5 -7 -10 -15 -10 -8
0 -15 5 -15 10 0 6 7 10 15 10 8 0 15 -4 15 -10z"/>
</g>
</svg>
