<?xml version="1.0" standalone="no"?>
<!DOCTYPE svg PUBLIC "-//W3C//DTD SVG 20010904//EN"
 "http://www.w3.org/TR/2001/REC-SVG-20010904/DTD/svg10.dtd">
<svg version="1.0" xmlns="http://www.w3.org/2000/svg"
 width="64.000000pt" height="64.000000pt" viewBox="0 0 64.000000 64.000000"
 preserveAspectRatio="xMidYMid meet">

<g transform="translate(0.000000,64.000000) scale(0.100000,-0.100000)"
fill="#000000" stroke="none">
<path d="M220 624 c-143 -52 -230 -184 -217 -329 11 -116 78 -214 182 -265 72
-34 198 -34 270 0 64 31 124 91 155 155 34 72 34 198 0 270 -31 64 -92 124
-154 154 -66 30 -174 37 -236 15z m234 -38 c105 -51 161 -144 161 -266 0 -85
-21 -142 -74 -203 -82 -92 -237 -121 -353 -64 -160 79 -215 278 -118 430 80
126 246 170 384 103z"/>
<path d="M226 584 c-34 -11 -64 -31 -102 -68 -63 -64 -90 -137 -81 -223 6 -53
39 -134 64 -155 25 -20 24 0 -1 37 -88 130 -40 308 103 380 51 26 137 30 191
10 82 -30 87 -31 71 -12 -17 22 -103 47 -155 46 -23 0 -63 -7 -90 -15z"/>
<path d="M310 535 c0 -14 5 -25 10 -25 6 0 10 11 10 25 0 14 -4 25 -10 25 -5
0 -10 -11 -10 -25z"/>
<path d="M200 518 c0 -9 5 -20 11 -23 17 -11 20 0 4 21 -13 17 -14 17 -15 2z"/>
<path d="M420 511 c-7 -15 -7 -21 0 -21 12 0 25 28 17 36 -3 3 -10 -4 -17 -15z"/>
<path d="M490 521 c0 -13 29 -35 37 -28 7 8 -15 37 -28 37 -5 0 -9 -4 -9 -9z"/>
<path d="M310 421 c0 -39 -4 -73 -10 -76 -17 -11 -11 -47 9 -52 10 -3 31 -27
46 -54 14 -27 30 -49 36 -49 14 0 11 11 -16 55 -14 22 -25 52 -25 67 0 15 -4
30 -10 33 -5 3 -10 37 -10 76 0 39 -4 69 -10 69 -6 0 -10 -30 -10 -69z m20
-101 c0 -5 -4 -10 -10 -10 -5 0 -10 5 -10 10 0 6 5 10 10 10 6 0 10 -4 10 -10z"/>
<path d="M543 465 c3 -11 13 -40 22 -65 32 -85 9 -187 -59 -258 -53 -57 -101
-77 -186 -77 -64 0 -82 4 -124 28 -53 30 -76 28 -36 -4 32 -24 112 -49 160
-49 150 0 280 130 280 280 0 49 -26 135 -47 151 -15 12 -16 12 -10 -6z"/>
<path d="M124 425 c21 -16 32 -13 21 4 -3 6 -14 11 -23 11 -15 -1 -15 -2 2
-15z"/>
<path d="M495 429 c-11 -17 0 -20 21 -4 17 13 17 14 2 15 -9 0 -20 -5 -23 -11z"/>
<path d="M80 320 c0 -5 11 -10 25 -10 14 0 25 5 25 10 0 6 -11 10 -25 10 -14
0 -25 -4 -25 -10z"/>
<path d="M510 320 c0 -5 11 -10 25 -10 14 0 25 5 25 10 0 6 -11 10 -25 10 -14
0 -25 -4 -25 -10z"/>
<path d="M124 215 c-17 -13 -17 -14 -2 -15 9 0 20 5 23 11 11 17 0 20 -21 4z"/>
<path d="M490 220 c0 -12 28 -25 36 -17 3 3 -4 10 -15 17 -15 7 -21 7 -21 0z"/>
<path d="M203 135 c-9 -25 4 -29 17 -6 7 15 7 21 0 21 -6 0 -13 -7 -17 -15z"/>
<path d="M420 129 c7 -11 14 -18 17 -15 8 8 -5 36 -17 36 -7 0 -7 -6 0 -21z"/>
<path d="M310 105 c0 -14 5 -25 10 -25 6 0 10 11 10 25 0 14 -4 25 -10 25 -5
0 -10 -11 -10 -25z"/>
</g>
</svg>
