<?xml version="1.0" standalone="no"?>
<!DOCTYPE svg PUBLIC "-//W3C//DTD SVG 20010904//EN"
 "http://www.w3.org/TR/2001/REC-SVG-20010904/DTD/svg10.dtd">
<svg version="1.0" xmlns="http://www.w3.org/2000/svg"
 width="64.000000pt" height="64.000000pt" viewBox="0 0 64.000000 64.000000"
 preserveAspectRatio="xMidYMid meet">

<g transform="translate(0.000000,64.000000) scale(0.100000,-0.100000)"
fill="#000000" stroke="none">
<path d="M227 623 c-14 -15 -21 -15 -37 -5 -22 14 -50 6 -50 -14 0 -8 -6 -14
-12 -15 -7 -1 -24 -2 -38 -2 -16 -1 -26 -9 -28 -22 -2 -11 -15 -30 -30 -42
l-26 -22 21 -38 c13 -24 19 -48 16 -65 -4 -20 0 -30 16 -40 23 -14 27 -38 9
-56 -9 -9 -8 -18 2 -38 13 -23 12 -27 -3 -35 -9 -6 -17 -21 -17 -34 0 -20 -5
-25 -26 -25 -23 0 -25 -3 -22 -33 2 -24 8 -33 25 -35 13 -2 23 -8 23 -13 0 -5
5 -9 10 -9 6 0 10 9 10 20 0 15 -7 20 -25 20 -18 0 -25 5 -25 20 0 15 7 20 25
20 20 0 25 5 25 25 0 18 5 25 20 25 15 0 20 -7 20 -24 0 -19 6 -25 28 -28 16
-2 27 -9 27 -18 0 -9 -11 -16 -27 -18 -26 -3 -28 -6 -28 -53 0 -42 -3 -49 -19
-49 -11 0 -21 6 -24 13 -2 6 -8 9 -12 5 -17 -16 5 -38 40 -38 l35 0 0 50 c0
47 2 50 25 50 22 0 25 4 25 35 0 31 -3 35 -25 35 -20 0 -25 5 -25 25 0 14 -7
28 -15 31 -17 7 -21 34 -5 34 6 0 10 11 10 25 0 14 -4 25 -10 25 -17 0 -11 25
10 43 11 9 20 26 20 38 0 17 4 20 23 15 12 -3 32 -6 44 -6 16 0 21 -4 16 -15
-3 -9 2 -24 12 -35 13 -14 14 -23 6 -38 -7 -14 -6 -24 5 -40 12 -17 12 -25 2
-41 -9 -16 -9 -23 3 -37 8 -9 14 -31 14 -48 0 -22 7 -33 25 -43 13 -6 28 -22
32 -34 7 -18 13 -20 43 -15 21 4 42 2 55 -6 18 -11 23 -10 38 9 9 12 30 23 47
25 21 2 31 9 35 26 3 12 16 28 30 35 18 9 24 20 22 37 -1 14 6 28 18 37 16 12
20 22 15 43 -4 16 -1 37 6 49 11 17 10 23 -4 39 -12 13 -15 28 -11 51 6 27 3
33 -15 38 -14 4 -21 13 -21 30 0 22 -2 24 -15 13 -19 -16 -32 -5 -16 14 9 11
7 15 -11 19 -12 4 -19 9 -15 13 11 11 -13 45 -31 43 -32 -3 -40 1 -45 22 -5
18 -11 21 -40 15 -27 -5 -36 -3 -41 10 -5 13 -15 15 -46 10 -22 -3 -41 -2 -45
4 -9 15 -29 12 -48 -7z m33 -13 c0 -5 -4 -10 -10 -10 -5 0 -10 5 -10 10 0 6 5
10 10 10 6 0 10 -4 10 -10z m87 -16 c-9 -9 -28 6 -21 18 4 6 10 6 17 -1 6 -6
8 -13 4 -17z m-167 -5 c0 -5 -4 -9 -10 -9 -5 0 -10 7 -10 16 0 8 5 12 10 9 6
-3 10 -10 10 -16z m132 -6 c16 -14 23 -15 38 -5 16 10 23 8 39 -9 13 -14 27
-20 41 -16 16 4 23 -1 30 -19 7 -17 17 -24 35 -24 20 0 25 -5 25 -25 0 -18 7
-28 25 -35 21 -8 24 -14 19 -35 -4 -18 -2 -27 10 -31 13 -5 15 -14 10 -41 -5
-25 -3 -38 7 -44 12 -8 11 -12 -5 -24 -12 -9 -17 -22 -14 -39 4 -19 -1 -30
-19 -41 -13 -9 -22 -24 -21 -33 2 -11 -5 -18 -20 -20 -13 -2 -27 -14 -32 -28
-8 -20 -14 -23 -35 -18 -15 4 -32 1 -41 -7 -13 -11 -17 -10 -25 4 -6 9 -21 17
-34 17 -18 0 -25 6 -25 19 0 10 -7 24 -15 31 -9 8 -12 22 -8 42 4 20 1 33 -8
38 -11 7 -11 13 1 34 12 23 11 28 -4 45 -13 14 -15 24 -8 38 11 22 5 43 -14
43 -7 0 -23 14 -36 30 -24 34 -39 37 -58 15 -10 -12 -24 -14 -59 -9 -56 8 -66
13 -52 27 6 6 11 24 11 39 0 22 5 28 21 28 13 0 23 8 26 21 5 17 11 20 34 15
17 -3 32 0 40 10 8 10 22 13 44 8 19 -3 35 -1 39 5 10 15 16 14 38 -6z m118
-3 c0 -5 -4 -10 -10 -10 -5 0 -10 5 -10 10 0 6 5 10 10 10 6 0 10 -4 10 -10z
m-330 -20 c0 -5 -4 -10 -10 -10 -5 0 -10 5 -10 10 0 6 5 10 10 10 6 0 10 -4
10 -10z m401 -23 c-1 -12 -15 -9 -19 4 -3 6 1 10 8 8 6 -3 11 -8 11 -12z
m-446 -47 c-3 -5 -10 -10 -16 -10 -5 0 -9 5 -9 10 0 6 7 10 16 10 8 0 12 -4 9
-10z m150 -60 c3 -5 -1 -10 -9 -10 -9 0 -16 5 -16 10 0 6 4 10 9 10 6 0 13 -4
16 -10z m-87 -38 c4 -28 -24 -40 -45 -19 -21 21 -9 49 19 45 15 -2 24 -11 26
-26z m482 18 c0 -5 -4 -10 -10 -10 -5 0 -10 5 -10 10 0 6 5 10 10 10 6 0 10
-4 10 -10z m-339 -43 c-13 -13 -26 -3 -16 12 3 6 11 8 17 5 6 -4 6 -10 -1 -17z
m359 -36 c0 -6 -4 -13 -10 -16 -5 -3 -10 1 -10 9 0 9 5 16 10 16 6 0 10 -4 10
-9z m-346 -42 c-3 -5 -10 -7 -15 -3 -5 3 -7 10 -3 15 3 5 10 7 15 3 5 -3 7
-10 3 -15z m-174 -4 c0 -8 -4 -15 -10 -15 -5 0 -10 7 -10 15 0 8 5 15 10 15 6
0 10 -7 10 -15z m504 -46 c-3 -5 -10 -7 -15 -3 -5 3 -7 10 -3 15 3 5 10 7 15
3 5 -3 7 -10 3 -15z m-324 -24 c0 -8 -4 -15 -10 -15 -5 0 -10 7 -10 15 0 8 5
15 10 15 6 0 10 -7 10 -15z m300 -45 c0 -5 -7 -10 -15 -10 -8 0 -15 5 -15 10
0 6 7 10 15 10 8 0 15 -4 15 -10z m-280 -35 c0 -8 -4 -15 -10 -15 -5 0 -10 7
-10 15 0 8 5 15 10 15 6 0 10 -7 10 -15z m220 -25 c0 -5 -4 -10 -10 -10 -5 0
-10 5 -10 10 0 6 5 10 10 10 6 0 10 -4 10 -10z m-160 -30 c0 -5 -4 -10 -10
-10 -5 0 -10 5 -10 10 0 6 5 10 10 10 6 0 10 -4 10 -10z m76 -17 c-10 -10 -19
5 -10 18 6 11 8 11 12 0 2 -7 1 -15 -2 -18z"/>
</g>
</svg>
