<?xml version="1.0" standalone="no"?>
<!DOCTYPE svg PUBLIC "-//W3C//DTD SVG 20010904//EN"
 "http://www.w3.org/TR/2001/REC-SVG-20010904/DTD/svg10.dtd">
<svg version="1.0" xmlns="http://www.w3.org/2000/svg"
 width="64.000000pt" height="64.000000pt" viewBox="0 0 64.000000 64.000000"
 preserveAspectRatio="xMidYMid meet">

<g transform="translate(0.000000,64.000000) scale(0.100000,-0.100000)"
fill="#000000" stroke="none">
<path d="M70 610 c0 -11 -7 -20 -15 -20 -13 0 -15 -27 -15 -180 l0 -180 100 0
c71 0 110 -5 130 -15 29 -15 40 -35 20 -35 -7 0 -10 -30 -8 -82 l3 -83 35 0
35 0 3 82 c2 53 -1 83 -8 83 -20 0 -9 20 20 35 20 10 59 15 130 15 l100 0 0
180 c0 153 -2 180 -15 180 -8 0 -15 9 -15 20 0 18 -7 20 -74 20 -41 0 -96 -7
-125 -17 -47 -15 -55 -15 -102 0 -29 10 -84 17 -125 17 -67 0 -74 -2 -74 -20z
m197 -14 c38 -13 38 -13 41 -72 l3 -59 -43 -19 c-29 -14 -60 -19 -95 -17 -34
2 -53 -1 -53 -8 0 -6 19 -11 46 -11 38 0 45 -3 40 -16 -3 -9 -6 -20 -6 -25 0
-5 -21 -9 -46 -9 -28 0 -43 -4 -39 -10 4 -6 11 -8 16 -4 21 12 57 -6 61 -31 5
-24 3 -25 -48 -25 l-54 0 0 159 c0 118 3 161 13 165 18 8 121 -3 164 -18z
m281 -143 l2 -163 -55 0 c-54 0 -56 1 -49 23 9 29 24 38 52 34 12 -3 25 0 28
4 3 5 -15 9 -40 9 -25 0 -46 4 -46 9 0 5 -3 16 -6 25 -5 13 2 16 40 16 27 0
46 5 46 11 0 7 -19 10 -52 8 -36 -2 -67 3 -95 17 l-43 19 0 58 c0 54 2 58 28
68 43 17 104 27 147 26 l40 -2 3 -162z m-478 -31 l0 -149 64 1 c40 1 70 -4 77
-12 10 -10 -4 -12 -74 -12 l-87 0 0 160 c0 100 4 160 10 160 6 0 10 -56 10
-148z m520 -12 l0 -160 -87 0 c-70 0 -84 2 -74 12 7 8 37 13 77 12 l64 -1 0
149 c0 92 4 148 10 148 6 0 10 -60 10 -160z m-194 -4 c38 -38 44 -77 19 -126
-17 -32 -61 -60 -95 -60 -34 0 -78 28 -95 60 -25 49 -19 88 19 126 28 28 42
34 76 34 34 0 48 -6 76 -34z m-66 -216 c0 -5 -4 -10 -10 -10 -5 0 -10 5 -10
10 0 6 5 10 10 10 6 0 10 -4 10 -10z m10 -75 c0 -38 -3 -45 -20 -45 -17 0 -20
7 -20 45 0 38 3 45 20 45 17 0 20 -7 20 -45z m-2 -77 c-3 -7 -11 -13 -18 -13
-7 0 -15 6 -17 13 -3 7 4 12 17 12 13 0 20 -5 18 -12z"/>
<path d="M120 551 c0 -5 28 -11 63 -13 34 -3 70 -8 80 -13 10 -4 17 -3 17 3 0
6 -17 16 -37 21 -46 13 -123 14 -123 2z"/>
<path d="M130 490 c-12 -8 -9 -10 11 -10 15 0 42 -3 60 -6 23 -5 31 -3 24 3
-15 16 -78 24 -95 13z"/>
<path d="M393 549 c-18 -5 -33 -14 -33 -20 0 -7 7 -8 18 -4 9 5 45 10 80 13
34 2 62 8 62 13 0 12 -85 10 -127 -2z"/>
<path d="M450 493 c-14 -3 -29 -9 -35 -15 -7 -7 0 -9 24 -4 18 3 45 6 60 6 20
0 23 2 11 10 -16 10 -19 10 -60 3z"/>
</g>
</svg>
